<svg width="101" height="108" viewBox="0 0 101 108" fill="none" xmlns="http://www.w3.org/2000/svg">
<path d="M49.7696 43.9336C44.2299 42.3723 35.8841 39.0175 28.5545 33.5056C25.6436 31.3149 22.9833 28.8339 21.0795 25.6676C17.382 19.526 19.2935 13.5111 25.8255 10.5948C31.882 7.88937 38.2969 7.43258 44.7943 7.64365C50.8946 7.84444 56.9333 8.82056 62.7563 10.5154C72.7084 13.4127 82.2882 17.2404 90.0709 24.4613C92.1948 26.4334 94.1468 28.5593 95.314 31.2899C97.5083 36.4137 96.2443 40.7724 91.4989 43.7061C86.5779 46.7504 81.0293 47.5316 75.3839 47.6987C67.7732 47.9273 60.3192 46.8103 49.7651 43.9362L49.7696 43.9336Z" fill="#4F525A"/>
<path d="M85.2637 78.08C84.0241 82.7065 83.0163 87.4144 81.4596 91.9329C80.4636 94.8181 77.8464 96.5231 75.0529 97.7388C69.0793 100.336 62.774 100.699 56.4004 100.413C49.5561 100.106 42.8099 99.0013 36.2944 96.9211C28.0688 94.2942 20.1361 90.9617 13.3526 85.4346C9.69558 82.4559 6.3707 79.1702 5.28831 74.2867C4.96289 72.8041 4.97704 71.3741 5.3818 69.9066C6.51153 65.8195 7.58842 61.7144 9.01973 57.6351C9.08465 58.5405 9.1027 59.4486 9.22002 60.345C9.71674 64.1721 11.9654 67.0272 14.5882 69.5904C19.9127 74.7957 26.3843 78.1442 33.1719 81.0162C36.0757 82.244 39.089 83.2205 42.0783 83.9715C53.1762 86.753 64.3977 88.499 75.7434 85.1197C79.7163 83.9355 83.032 81.8757 85.2637 78.08Z" fill="#4F525A"/>
<path d="M13.412 40.1112C13.5803 46.9716 17.8624 51.1749 22.6992 54.9579C31.8467 62.1063 42.559 65.7531 53.728 67.9963C62.1361 69.6842 70.6905 70.1658 79.153 67.9205C83.5642 66.75 87.456 64.8215 89.6656 60.3049C90.0504 60.9347 89.8007 61.379 89.6928 61.796C88.8742 64.894 87.8662 67.9527 87.2524 71.0902C86.2438 76.2169 82.953 79.0445 78.3144 80.7191C71.9133 83.0324 65.302 83.0599 58.6291 82.6864C53.69 82.4124 48.8213 81.4884 44.1257 80.1764C33.8328 77.3031 23.9409 73.3918 15.9218 65.9346C13.1923 63.3965 10.8652 60.5474 10.001 56.7717C9.75025 55.6705 9.60644 54.5287 9.86912 53.4767C10.9873 49.0021 12.2239 44.5593 13.4175 40.1049L13.412 40.1112Z" fill="#4F525A"/>
<path d="M94.7218 43.0397L92.9296 49.7285C92.7537 50.3848 92.5006 51.0281 92.4147 51.6931C91.4292 59.5167 86.0956 62.781 79.1504 64.2989C73.1967 65.602 67.1684 65.6203 61.1674 64.8619C48.4566 63.2512 36.4231 59.6001 25.6664 52.3896C21.6907 49.7252 18.1549 46.6098 15.8678 42.2914C14.5525 39.7979 14.0822 37.2349 14.8739 34.4525C15.9996 30.4951 17.0187 26.5052 18.4118 22.5541C18.5184 23.6628 18.5192 24.7931 18.7513 25.8778C19.4763 29.2548 21.4434 31.9268 23.8471 34.2892C28.7936 39.1548 34.7381 42.4621 41.0493 45.1756C45.8681 47.2471 50.8522 48.8594 55.9774 49.9021C65.6873 51.8812 75.4418 52.8766 85.1693 49.9555C89.1071 48.7734 92.4211 46.7054 94.7182 43.0388L94.7218 43.0397Z" fill="#4F525A"/>
</svg>
