<svg width="118" height="123" viewBox="0 0 118 123" fill="none" xmlns="http://www.w3.org/2000/svg">
<g clip-path="url(#clip0_1366_2058)">
<path d="M84.5864 96.3601C79.5367 93.0418 78.9078 91.3611 80.4305 85.8991C81.5601 81.848 82.6865 77.7974 83.8431 73.7538C85.69 67.2997 89.9797 65.8918 95.1838 70.0033C95.4236 70.1935 95.7367 70.2906 96.2948 70.5702C98.2477 63.9891 100.273 56.7185 97.1863 51.0534C90.7567 39.2565 84.2547 26.8309 69.2426 23.3264C58.0904 20.7227 47.8603 22.3927 38.4786 29.0456C36.9179 30.1517 35.4338 31.2347 33.4271 31.1937C32.618 31.1771 31.9188 31.471 31.3547 32.0609C26.5947 37.0258 23.7038 42.9626 21.9061 49.6871C23.7574 49.9441 25.2388 49.2353 26.7817 49.6668C30.241 50.6349 32.2146 53.6812 31.2843 57.3104C29.9382 62.5623 28.4593 67.7815 26.8938 72.9717C25.8835 76.3204 22.966 78.1319 19.8361 77.6435C16.7897 77.1678 14.6966 74.4383 14.7839 70.9135C14.812 69.7967 14.9974 68.8208 13.8934 67.9731C9.70751 64.7591 9.30686 59.4593 13.2029 56.0711C14.8411 54.6457 15.6725 53.0599 16.1328 51.0995C18.1587 42.4584 23.1244 35.3955 27.3585 27.7631C33.7061 16.3219 43.8077 13.7062 54.5775 12.0602C67.3363 10.1105 78.9658 13.9561 89.0311 22.1011C95.1329 27.0391 99.6434 33.2191 102.621 40.5299C103.402 42.4469 103.765 44.3296 102.944 46.31C102.457 47.484 102.525 48.6555 102.76 49.8846C104.093 56.8475 103.722 63.7174 101.702 70.5425C100.627 74.1786 99.1382 77.7019 100.594 81.7814C101.345 83.8834 100.465 86.7065 98.8473 88.2928C94.5934 92.461 91.6523 97.766 86.8297 101.453C78.0049 108.2 68.2121 111.363 57.2032 110.321C53.2372 109.945 49.3097 111.732 45.2704 109.899C41.8554 108.349 40.8867 107.395 41.7924 104.06C42.6885 100.759 44.2937 99.7562 47.692 100.593C50.1249 101.193 52.6895 101.601 54.3691 103.835C55.014 104.692 56.0395 104.911 57.0208 104.999C67.2443 105.93 76.353 103.197 84.5868 96.3587L84.5864 96.3601Z" fill="#4F535B"/>
</g>
<defs>
<clipPath id="clip0_1366_2058">
<rect width="93.3808" height="100.564" fill="white" transform="translate(27.3955 0.537598) rotate(15.681)"/>
</clipPath>
</defs>
</svg>
