<svg width="113" height="127" viewBox="0 0 113 127" fill="none" xmlns="http://www.w3.org/2000/svg">
<g clip-path="url(#clip0_1366_2045)">
<path d="M25.8111 41.1506C26.2716 40.028 27.0347 39.1395 27.9855 38.4394C30.6064 36.5096 31.658 33.9723 31.5315 30.7087C31.3708 26.5814 34.2411 23.1652 38.3277 22.519C41.4282 22.0291 43.6306 20.632 45.1868 17.8196C47.4455 13.7363 51.3309 12.369 55.7032 14.0191C58.814 15.1934 61.4768 14.6169 64.1967 12.9568C66.9741 11.2621 70.8272 11.6332 73.2475 13.6526C74.1122 14.3739 74.8372 15.2686 75.5952 16.1102C76.9383 17.6019 78.6171 18.3389 80.6035 18.4167C81.2455 18.4423 81.889 18.4431 82.5318 18.4642C86.6196 18.5934 89.8945 21.2734 90.5075 25.3222C91.0122 28.6499 92.6936 30.8842 95.6628 32.3991C98.923 34.0611 100.566 38.3866 99.4205 41.8338C99.2068 42.4776 98.9955 43.1213 98.7808 43.7647C98.0837 45.8581 98.3089 47.8488 99.4558 49.7438C100.421 51.3386 101.295 52.9545 101.249 54.9086C101.193 57.3583 100.457 59.4925 98.5612 61.1389C98.134 61.5092 97.7219 61.8974 97.2891 62.2615C95.5645 63.7136 94.7433 65.5599 94.7467 67.8179C94.7494 69.4323 94.8085 71.0518 94.0453 72.5776C92.7889 75.0915 90.9067 76.7721 88.089 77.3128C87.6069 77.4056 87.1269 77.5153 86.6436 77.6028C84.2499 78.0385 82.5006 79.3257 81.4013 81.4951C79.976 84.3103 77.7587 86.0357 74.5626 86.4488C73.2482 86.6187 71.9623 86.4813 70.7785 85.9619C67.8119 84.6602 65.0967 84.9908 62.3797 86.7034C59.3974 88.583 56.3429 88.2534 53.3815 86.4765C52.6206 86.0197 52.0465 85.3589 51.52 84.6662C49.7061 82.2833 47.322 81.1017 44.3313 81.374C40.1241 81.7577 36.0209 78.1868 35.6206 74.2479C35.3084 71.178 33.6794 69.0322 30.8993 67.6627C27.342 65.9093 25.3288 61.2552 27.076 57.1903C28.3365 54.2567 27.8646 51.6385 26.2033 49.0406C24.5794 46.5025 24.6657 43.8361 25.8111 41.1506ZM52.0143 74.0815C65.3702 80.2247 81.146 74.5038 87.2846 61.4565C93.3468 48.5728 88.5721 32.2381 74.1367 25.6733C59.9586 19.2255 44.756 25.9797 38.9409 38.4933C32.6019 52.1368 38.399 67.8179 52.0147 74.0804L52.0143 74.0815Z" fill="#4F535B"/>
<path d="M53.0697 90.2678C56.8862 91.9526 60.6092 91.9326 64.2459 89.7529C65.2361 89.1588 66.2205 88.4815 67.504 88.6531C68.4599 88.7815 68.8439 89.1394 68.7131 90.2075C67.8535 97.2411 67.0658 104.283 66.2487 111.323C66.0924 112.671 65.9241 114.018 65.7334 115.36C65.6524 115.931 65.4732 116.495 64.8478 116.699C64.2096 116.908 63.7185 116.533 63.3554 116.103C61.6476 114.081 59.9717 112.032 58.2914 109.987C57.3544 108.847 56.416 107.708 55.5057 106.548C54.8873 105.76 54.282 105.713 53.4881 106.333C50.6654 108.539 47.8116 110.707 44.9693 112.889C44.4002 113.326 43.8418 113.785 43.1573 114.033C42.2871 114.35 41.7358 114.055 41.5994 113.142C41.5233 112.629 41.5586 112.088 41.617 111.567C42.0972 107.296 42.6065 103.029 43.0724 98.7586C43.1516 98.0372 43.4373 97.4898 43.9215 96.9739C45.9317 94.8281 47.9711 92.7067 49.891 90.483C50.7388 89.5005 51.4928 89.2316 52.5545 90.0275C52.7031 90.1384 52.8949 90.1899 53.0667 90.2688L53.0697 90.2678Z" fill="#4F535B"/>
<path d="M13.5504 88.7124C13.8485 88.3485 14.1827 87.8928 14.5646 87.4798C19.2641 82.3866 23.9697 77.2988 28.6763 72.2113C29.8 70.9962 30.7944 71.1605 31.547 72.7014C31.9316 73.4897 32.0496 74.3602 32.2081 75.2115C33.2455 80.7881 38.0222 84.7878 43.728 84.8963C45.1005 84.9224 46.5392 84.6951 47.7156 85.7715C48.3598 86.3598 48.5323 86.8131 47.8569 87.5373C42.6661 93.1004 37.5082 98.6933 32.338 104.276C32.1846 104.442 32.0263 104.605 31.8512 104.747C31.4091 105.104 30.9562 105.504 30.3304 105.302C29.6384 105.079 29.4953 104.442 29.4529 103.841C29.2755 101.285 29.1388 98.7259 28.9892 96.1681C28.9031 94.7006 28.8259 93.2323 28.7373 91.7649C28.6581 90.4529 28.4604 90.2598 27.16 90.2899C23.4566 90.3737 19.755 90.4694 16.0517 90.5582C15.4108 90.5732 14.7639 90.6331 14.1481 90.3746C13.4068 90.0646 13.2501 89.5235 13.5509 88.7114L13.5504 88.7124Z" fill="#4F535B"/>
<path d="M53.5242 60.3683C52.4268 59.8021 51.4518 58.9692 50.9751 57.7098C49.49 53.7929 47.9409 49.8953 46.6082 45.9265C45.3049 42.048 48.4644 38.5807 52.3492 39.4745C54.0232 39.8596 55.1581 40.9145 55.7709 42.4984C56.5472 44.5047 57.3354 46.5091 58.0159 48.5481C58.3558 49.5644 58.7588 49.7982 59.8057 49.4031C65.4546 47.2692 71.126 45.1982 76.7995 43.1305C79.1722 42.2661 81.3595 42.9381 82.7243 44.8784C84.3632 47.2078 83.6842 50.4158 81.2272 51.8421C80.7095 52.1429 80.1443 52.3767 79.5797 52.5852C72.4273 55.2236 65.2661 57.8385 58.1197 60.4931C56.5816 61.0647 55.1009 61.0718 53.5238 60.3693L53.5242 60.3683Z" fill="#4F535B"/>
</g>
<defs>
<clipPath id="clip0_1366_2045">
<rect width="75.1759" height="104.482" fill="white" transform="translate(44.5693 0.20752) rotate(24.6705)"/>
</clipPath>
</defs>
</svg>
