<svg width="83" height="110" viewBox="0 0 83 110" fill="none" xmlns="http://www.w3.org/2000/svg">
<path d="M69.1193 63.9523C73.3272 51.0884 77.5387 38.2274 81.7396 25.3613C83.1879 20.9243 81.6135 16.3778 77.8082 13.8866C76.9245 13.3085 75.9503 12.9176 74.9594 12.592C63.1166 8.70735 51.2738 4.82734 39.4233 0.966319C34.8424 -0.525953 30.7134 0.702495 27.9417 4.33152C27.2107 5.28819 26.729 6.37558 26.3557 7.51687C18.4882 31.5779 10.6134 55.6381 2.75425 79.7019C2.08163 81.7581 1.27853 83.7763 0.837298 85.9052C-0.149122 90.6546 2.5645 95.4447 7.17827 96.9631C18.0914 100.556 29.0154 104.115 39.9353 107.687C41.4626 108.187 42.9844 108.703 44.518 109.179C48.8383 110.518 53.9182 108.253 55.8346 104.161C56.1541 103.476 56.4232 102.775 56.658 102.057C60.8099 89.355 64.966 76.6541 69.1193 63.9523ZM65.7148 59.282C61.9988 70.6422 58.2829 82.0023 54.5669 93.3625C54.3295 94.0882 53.8589 94.3364 53.1552 94.1072C38.3935 89.2786 23.6332 84.4504 8.8715 79.6218C8.16989 79.3923 7.93004 78.9367 8.15196 78.2552C15.5916 55.5113 23.0309 32.7687 30.4706 10.0248C30.7055 9.30655 31.1744 9.06185 31.8773 9.29073C46.6389 14.1194 61.3992 18.9476 76.1609 23.7762C76.8616 24.0054 77.0946 24.4802 76.86 25.2007C73.144 36.5608 69.428 47.921 65.712 59.2811L65.7148 59.282ZM26.9017 99.3755C24.7195 98.651 23.6015 96.4301 24.3178 94.2406C25.0254 92.0774 27.2986 90.9074 29.4427 91.6073C31.6411 92.3248 32.7754 94.5894 32.0454 96.8022C31.3268 98.9756 29.0811 100.099 26.9017 99.3755ZM55.0517 13.1394C55.0517 13.1394 55.054 13.1325 55.0549 13.1297C52.9528 12.4421 50.8457 11.7698 48.7509 11.06C47.9002 10.7709 47.4928 9.94446 47.7285 9.14857C47.9588 8.36933 48.7876 7.87962 49.6246 8.0366C49.7911 8.06801 49.9531 8.12715 50.1142 8.17983C54.11 9.48691 58.1068 10.7912 62.1018 12.1011C63.2056 12.4621 63.7551 13.3289 63.4797 14.2271C63.1939 15.1573 62.3122 15.5082 61.1501 15.1327C59.1152 14.4748 57.0843 13.8043 55.0517 13.1394Z" fill="#4F535B"/>
</svg>
