<svg width="95" height="91" viewBox="0 0 95 91" fill="none" xmlns="http://www.w3.org/2000/svg">
<path d="M4.10743 60.1148C3.90369 56.3719 4.72289 52.9203 7.09399 49.9137C8.21937 48.4858 9.5658 47.3026 11.1372 46.3813C14.6883 44.3007 18.2562 42.2481 21.7944 40.1453C22.5631 39.6885 23.01 39.6349 23.5235 40.517C27.8112 47.8827 32.1227 55.2344 36.4856 62.5561C37.1213 63.6235 36.983 64.1108 35.8993 64.7119C32.0005 66.8728 28.279 69.3876 24.2626 71.2923C17.044 74.7148 9.12327 71.8027 5.50856 64.7305C5.31537 64.3525 5.1064 63.9817 4.90449 63.6075C4.63886 62.4435 4.37324 61.2796 4.10743 60.1148Z" fill="#4F535B"/>
<path d="M42.9927 87.9825C41.5315 87.9121 40.2636 87.4429 39.1513 86.4437C35.2422 82.9319 31.3064 79.4479 27.3488 75.9904C26.5561 75.2979 26.4859 74.9144 27.4792 74.3477C31.1304 72.264 34.7547 70.1347 38.3634 67.9787C39.1278 67.5221 39.632 67.5977 40.2658 68.1996C42.5891 70.4051 44.984 72.5363 47.3081 74.7416C48.8088 76.1665 50.5223 77.1442 52.5699 77.5019C53.7907 77.7152 54.6564 78.3082 54.881 79.5626C55.1159 80.8742 54.4517 81.7507 53.3547 82.3963C50.3988 84.1358 47.4514 85.8897 44.501 87.6383L42.9927 87.9825Z" fill="#4F535B"/>
<path d="M92.2003 28.9886C92.5456 32.3496 92.5726 35.703 91.9418 39.0426C91.9105 39.2103 91.8873 39.3795 91.8542 39.5467C91.601 40.853 90.8108 41.3365 89.4836 40.9973C88.3611 40.7115 87.2432 40.4083 86.1125 40.1589C85.3718 39.9957 85.1411 39.6591 85.3305 38.8927C86.3141 34.9082 86.1921 30.9215 85.0509 27.0103C82.6367 18.7363 77.3013 13.1467 69.1191 10.2701C67.4287 9.67553 67.41 9.71172 67.85 8.01222C68.1493 6.85483 68.5092 5.71123 68.762 4.5446C68.9444 3.70557 69.3234 3.53711 70.127 3.78952C79.4647 6.71913 86.1384 12.5876 90.0423 21.5252C90.3992 22.3421 90.723 23.1744 91.0616 23.9989L92.2001 28.9878L92.2003 28.9886Z" fill="#4F535B"/>
<path d="M78.2769 55.4046C75.3971 55.386 72.6538 55.4089 69.9092 55.5217C64.4915 55.7441 59.1253 56.4396 53.8376 57.5704C49.9849 58.3944 46.1858 59.5211 42.5412 61.07C41.6257 61.4593 41.039 61.4335 40.4604 60.4376C36.1571 53.0263 31.7946 45.6492 27.4314 38.2731C27.0268 37.5896 26.9379 37.124 27.6638 36.5519C36.9841 29.2013 43.9132 19.9266 49.5858 9.64237C49.9443 8.99186 50.1181 7.88642 50.8645 7.88782C51.5794 7.88864 51.8075 8.97572 52.1852 9.61704C60.903 24.4238 69.6092 39.2367 78.2956 54.0618C78.5223 54.4493 79.3789 55.0901 78.2769 55.4046Z" fill="#4F535B"/>
<path d="M81.2216 28.9101C81.9827 31.8415 81.8848 34.7539 81.3357 37.6857C81.1703 38.5691 80.7762 38.8196 79.9143 38.5597C78.6433 38.1758 77.3635 37.7956 76.0608 37.5432C75.0474 37.3473 75.009 36.8132 75.1618 35.9853C75.8205 32.4322 75.1425 29.1221 73.2436 26.0594C71.5384 23.3082 69.1419 21.3757 66.0698 20.3465C65.0114 19.9917 64.7335 19.5322 65.085 18.4889C65.4653 17.3588 65.746 16.1884 65.9735 15.0172C66.1759 13.9725 66.6803 13.8315 67.6122 14.1582C74.8004 16.68 79.3034 21.6208 81.22 28.9105L81.2216 28.9101Z" fill="#4F535B"/>
</svg>
