<svg width="59" height="61" viewBox="0 0 59 61" fill="none" xmlns="http://www.w3.org/2000/svg">
<rect x="0.5" y="0.5" width="58" height="60" rx="12.5" stroke="#D9D9D9"/>
<g clip-path="url(#clip0_7313_37)">
<path d="M37.139 45.9108C36.7134 45.0218 36.2765 44.1379 35.8648 43.2426C34.5465 40.369 33.0948 37.5512 32.2399 34.4823C31.978 33.5426 31.9616 33.5616 32.7498 32.9897C34.9444 31.3969 37.1302 29.7927 39.3197 28.1935C39.4016 28.1339 39.4998 28.0845 39.491 27.945C39.282 27.8207 39.0478 27.8854 38.8262 27.8854C36.245 27.8803 33.6639 27.8473 31.084 27.9031C30.3223 27.9196 30.0276 27.6457 29.8148 26.9533C28.9876 24.2737 28.1037 21.6118 27.2035 18.8245C27.0977 19.1047 27.0197 19.2848 26.9605 19.4712C26.1282 22.0646 25.2846 24.6541 24.4775 27.2538C24.3252 27.7433 24.0973 27.8727 23.5911 27.8993C19.6665 28.101 15.8225 27.3997 11.9609 26.8949C11.6713 26.8569 11.3842 26.8074 11.0972 26.7567C11.0707 26.7516 11.0531 26.6933 11.0015 26.6134C11.8337 26.3281 12.6924 26.2951 13.531 26.1987C16.3199 25.8804 19.0874 25.3136 21.9128 25.4074C22.463 25.4252 22.5587 25.0371 22.6808 24.6541C23.3381 22.6035 23.9852 20.5504 24.6463 18.5011C25.4105 16.1309 26.1849 13.7633 26.958 11.3957C27.002 11.2587 27.0662 11.1294 27.1204 11C27.4175 11.0304 27.3936 11.2714 27.4452 11.4299C28.8806 15.8469 30.3197 20.2625 31.7236 24.6909C31.8974 25.24 32.1505 25.4176 32.7007 25.415C37.1277 25.3985 41.5559 25.4061 45.9829 25.4061C46.1717 25.4061 46.3606 25.3985 46.5494 25.4099C46.7081 25.4201 46.9272 25.3478 46.9914 25.5507C47.0581 25.7625 46.829 25.8132 46.7018 25.9058C43.8172 28.016 40.9314 30.1249 38.0455 32.2326C37.1805 32.8641 36.3281 33.5147 35.443 34.117C35.0212 34.4036 34.9381 34.7004 35.093 35.1797C36.1859 38.5885 36.6253 42.1406 37.3052 45.6394C37.3203 45.7155 37.2901 45.7992 37.2813 45.8804C37.2347 45.8918 37.1881 45.9019 37.1415 45.9133L37.139 45.9108Z" fill="#D9D9D9"/>
<path d="M16.0275 30.3253C16.9353 30.778 17.7764 31.1927 18.6137 31.6163C19.6436 32.1388 20.6585 32.6942 21.7035 33.1837C22.2512 33.4412 22.3708 33.7303 22.1732 34.3187C21.2729 36.9996 20.4192 39.6969 19.5505 42.3879C19.5265 42.4615 19.514 42.5376 19.4699 42.7303C20.9896 41.6194 22.4124 40.5808 23.8352 39.5409C24.8198 38.8206 25.8044 38.1041 26.784 37.3775C27.0547 37.1758 27.2989 37.1086 27.557 37.3889C28.83 38.7636 30.1042 40.1344 31.3771 41.5091C31.4011 41.5345 31.3973 41.5865 31.4174 41.674C31.1392 41.7906 30.8999 41.6423 30.667 41.5497C29.6925 41.1604 28.7154 40.7748 27.7535 40.3551C27.3581 40.1826 27.061 40.2283 26.7147 40.4844C22.9739 43.2414 19.2244 45.9844 15.476 48.7299C15.3275 48.839 15.1978 48.9912 14.9422 49C14.9271 48.5055 15.1348 48.0705 15.2758 47.6304C16.5853 43.5508 17.8948 39.4699 19.2395 35.4004C19.4485 34.7676 19.3377 34.3212 18.9033 33.8571C18.027 32.9187 17.1809 31.9511 16.3259 30.9936C16.1912 30.8427 15.9935 30.7222 16.0275 30.3253Z" fill="#D9D9D9"/>
</g>
<defs>
<clipPath id="clip0_7313_37">
<rect width="36" height="38" fill="white" transform="translate(11 11)"/>
</clipPath>
</defs>
</svg>
