<svg width="117" height="124" viewBox="0 0 117 124" fill="none" xmlns="http://www.w3.org/2000/svg">
<g clip-path="url(#clip0_7310_30)">
<path d="M47.356 83.335C45.1621 77.3568 42.9604 71.3814 40.7743 65.4004C39.4709 61.8363 39.6732 60.6785 42.0632 58.585C42.9582 57.7997 43.4193 56.7168 43.8446 55.5727C46.3801 48.6876 47.5465 41.1628 49.6176 34.055C50.4036 31.3602 49.6922 28.3067 49.1176 25.3835C48.4487 21.985 47.8619 18.6041 48.4252 15.2421C48.8329 12.8137 50.0505 11.5011 52.158 10.9773C60.6152 8.88293 65.3276 14.33 68.4041 23.6708C69.7735 27.8267 69.9322 32.0287 69.5573 36.2193C69.2479 39.6793 69.485 39.8526 72.2309 38.8502C75.7435 37.5611 79.2475 36.2487 82.7682 34.9938C91.2457 31.9731 99.7253 40.1703 98.7011 50.4582C98.5156 52.3164 98.7553 53.806 99.7116 55.5268C101.333 58.4536 102.192 61.6549 101.794 64.972C101.667 66.0438 101.846 66.9926 102.394 68.0133C104.239 71.4529 104.69 75.0432 103.986 78.6533C103.766 79.7751 103.781 80.7844 104.175 81.9569C107.187 90.9282 104.685 97.5408 97.385 100.751C88.6254 104.603 79.4029 106.224 69.6128 105.498C66.0734 105.235 62.5466 105.165 59.0809 105.709C56.9277 106.047 55.2399 104.733 54.2992 102.194C51.9645 95.9169 49.6751 89.6178 47.3678 83.3307L47.356 83.335Z" fill="#4F535B"/>
<path d="M44.5394 84.5811C46.7882 90.7091 49.0489 96.8328 51.2821 102.967C52.6189 106.646 51.9653 108.453 48.9009 109.593C44.4896 111.233 40.0748 112.864 35.6463 114.457C32.9775 115.416 31.0601 114.494 29.871 111.302C25.1619 98.6881 20.5255 86.0421 15.9496 73.3791C14.9408 70.594 15.6215 68.4851 17.9327 67.5466C22.6732 65.6157 27.48 63.8411 32.346 62.2519C34.8014 61.4517 36.5075 62.7432 37.6239 65.7491C39.953 72.0229 42.2429 78.3112 44.5484 84.5937L44.5394 84.5811ZM40.3494 99.4304C39.6739 97.4686 37.7759 96.2847 36.1237 96.8007C34.3034 97.3678 33.5073 99.3438 34.2542 101.476C35.0075 103.638 36.8294 104.711 38.6232 104.048C40.2697 103.444 41.03 101.406 40.3494 99.4304Z" fill="#4F535B"/>
</g>
<defs>
<clipPath id="clip0_7310_30">
<rect width="87.2985" height="100.014" fill="white" transform="translate(0 30.0757) rotate(-20.1522)"/>
</clipPath>
</defs>
</svg>
