<svg width="18" height="32" viewBox="0 0 18 32" fill="none" xmlns="http://www.w3.org/2000/svg">
<path d="M0.658805 30.4776C0.236973 30.062 0 29.4983 0 28.9107C0 28.323 0.236973 27.7594 0.658805 27.3438L12.5687 15.6131L0.658805 3.88239C0.248927 3.4644 0.0221281 2.90457 0.0272548 2.32347C0.0323816 1.74237 0.269024 1.18651 0.686214 0.775594C1.1034 0.364681 1.66776 0.131598 2.25774 0.126549C2.84771 0.121499 3.4161 0.344887 3.84047 0.748598L17.3412 14.0462C17.763 14.4618 18 15.0254 18 15.6131C18 16.2008 17.763 16.7644 17.3412 17.18L3.84047 30.4776C3.41851 30.8931 2.84629 31.1265 2.24964 31.1265C1.65299 31.1265 1.08076 30.8931 0.658805 30.4776Z" fill="white"/>
</svg>
